<?xml version="1.0" encoding="UTF-8" standalone="no"?>
<svg
   xmlns:dc="http://purl.org/dc/elements/1.1/"
   xmlns:cc="http://creativecommons.org/ns#"
   xmlns:rdf="http://www.w3.org/1999/02/22-rdf-syntax-ns#"
   xmlns:svg="http://www.w3.org/2000/svg"
   xmlns="http://www.w3.org/2000/svg"
   viewBox="0 0 447.67999 569.40002"
   height="569.40002"
   width="447.67999"
   xml:space="preserve"
   id="svg2"
   version="1.1"><metadata
     id="metadata8"><rdf:RDF><cc:Work
         rdf:about=""><dc:format>image/svg+xml</dc:format><dc:type
           rdf:resource="http://purl.org/dc/dcmitype/StillImage" /></cc:Work></rdf:RDF></metadata><defs
     id="defs6"><clipPath
       id="clipPath22"
       clipPathUnits="userSpaceOnUse"><path
         id="path20"
         d="m 3280.21,527.84 c 0,-256.481 -192.54,-449.1212 -449.2,-449.1212 H 77.3945 V 3742.63 c 0,256.57 192.5075,449.12 449.2075,449.12 H 3280.21 Z" /></clipPath><linearGradient
       id="linearGradient32"
       spreadMethod="pad"
       gradientTransform="matrix(3202.82,0,0,-3202.82,77.3926,2135.24)"
       gradientUnits="userSpaceOnUse"
       y2="0"
       x2="1"
       y1="0"
       x1="0"><stop
         id="stop24"
         offset="0"
         style="stop-opacity:1;stop-color:#a61d3c" /><stop
         id="stop26"
         offset="0.0797546"
         style="stop-opacity:1;stop-color:#a61d3c" /><stop
         id="stop28"
         offset="0.981595"
         style="stop-opacity:1;stop-color:#b22841" /><stop
         id="stop30"
         offset="1"
         style="stop-opacity:1;stop-color:#b22841" /></linearGradient><clipPath
       id="clipPath44"
       clipPathUnits="userSpaceOnUse"><path
         id="path42"
         d="m 778.77,4188.02 10.335,-933.46 915.475,381.62 z" /></clipPath><linearGradient
       id="linearGradient54"
       spreadMethod="pad"
       gradientTransform="matrix(925.815,0,0,-925.815,778.77,3721.29)"
       gradientUnits="userSpaceOnUse"
       y2="0"
       x2="1"
       y1="0"
       x1="0"><stop
         id="stop46"
         offset="0"
         style="stop-opacity:1;stop-color:#b63044" /><stop
         id="stop48"
         offset="0.0368098"
         style="stop-opacity:1;stop-color:#b63044" /><stop
         id="stop50"
         offset="0.895705"
         style="stop-opacity:1;stop-color:#bc3b50" /><stop
         id="stop52"
         offset="1"
         style="stop-opacity:1;stop-color:#bc3b50" /></linearGradient><clipPath
       id="clipPath66"
       clipPathUnits="userSpaceOnUse"><path
         id="path64"
         d="M 399.727,2333.81 783.953,1397.7 87.7227,1622.05 Z" /></clipPath><linearGradient
       id="linearGradient76"
       spreadMethod="pad"
       gradientTransform="matrix(-4.09e-5,936.108,936.108,4.09e-5,435.84,1397.7)"
       gradientUnits="userSpaceOnUse"
       y2="0"
       x2="1"
       y1="0"
       x1="0"><stop
         id="stop68"
         offset="0"
         style="stop-opacity:1;stop-color:#a51d3c" /><stop
         id="stop70"
         offset="0.0368098"
         style="stop-opacity:1;stop-color:#a51d3c" /><stop
         id="stop72"
         offset="0.93865"
         style="stop-opacity:1;stop-color:#901b38" /><stop
         id="stop74"
         offset="1"
         style="stop-opacity:1;stop-color:#901b38" /></linearGradient><clipPath
       id="clipPath90"
       clipPathUnits="userSpaceOnUse"><path
         id="path88"
         d="M 780.059,85.1094 783.953,1397.7 1702.92,1019.56 Z" /></clipPath><linearGradient
       id="linearGradient100"
       spreadMethod="pad"
       gradientTransform="matrix(-5.74e-5,1312.59,1312.59,5.74e-5,1241.49,85.1097)"
       gradientUnits="userSpaceOnUse"
       y2="0"
       x2="1"
       y1="0"
       x1="0"><stop
         id="stop92"
         offset="0"
         style="stop-opacity:1;stop-color:#ba3647" /><stop
         id="stop94"
         offset="0.0368098"
         style="stop-opacity:1;stop-color:#ba3647" /><stop
         id="stop96"
         offset="0.93865"
         style="stop-opacity:1;stop-color:#9f1c3b" /><stop
         id="stop98"
         offset="1"
         style="stop-opacity:1;stop-color:#9f1c3b" /></linearGradient><clipPath
       id="clipPath110"
       clipPathUnits="userSpaceOnUse"><path
         id="path108"
         d="m 2622.59,4182.87 10.3,-933.54 -928.31,386.85 z" /></clipPath><linearGradient
       id="linearGradient120"
       spreadMethod="pad"
       gradientTransform="matrix(-4.08e-5,933.54,933.54,4.08e-5,2168.74,3249.33)"
       gradientUnits="userSpaceOnUse"
       y2="0"
       x2="1"
       y1="0"
       x1="0"><stop
         id="stop112"
         offset="0"
         style="stop-opacity:1;stop-color:#cb4057" /><stop
         id="stop114"
         offset="0.0368098"
         style="stop-opacity:1;stop-color:#cb4057" /><stop
         id="stop116"
         offset="0.895705"
         style="stop-opacity:1;stop-color:#b42e43" /><stop
         id="stop118"
         offset="1"
         style="stop-opacity:1;stop-color:#b42e43" /></linearGradient><clipPath
       id="clipPath130"
       clipPathUnits="userSpaceOnUse"><path
         id="path128"
         d="m 2622.59,4182.87 10.3,-933.54 644.84,-229.59 z" /></clipPath><linearGradient
       id="linearGradient140"
       spreadMethod="pad"
       gradientTransform="matrix(396.517,228.929,228.929,-396.517,2559.79,3375.94)"
       gradientUnits="userSpaceOnUse"
       y2="0"
       x2="1"
       y1="0"
       x1="0"><stop
         id="stop132"
         offset="0"
         style="stop-opacity:1;stop-color:#d4445e" /><stop
         id="stop134"
         offset="0.0797546"
         style="stop-opacity:1;stop-color:#d4445e" /><stop
         id="stop136"
         offset="0.944785"
         style="stop-opacity:1;stop-color:#b32b43" /><stop
         id="stop138"
         offset="1"
         style="stop-opacity:1;stop-color:#b32b43" /></linearGradient><clipPath
       id="clipPath150"
       clipPathUnits="userSpaceOnUse"><path
         id="path148"
         d="m 3011.36,2322.93 -378.47,926.4 644.84,-229.59 z" /></clipPath><linearGradient
       id="linearGradient156"
       spreadMethod="pad"
       gradientTransform="matrix(644.844,0,0,-644.844,2632.89,2786.13)"
       gradientUnits="userSpaceOnUse"
       y2="0"
       x2="1"
       y1="0"
       x1="0"><stop
         id="stop152"
         offset="0"
         style="stop-opacity:1;stop-color:#bd3c51" /><stop
         id="stop154"
         offset="1"
         style="stop-opacity:1;stop-color:#b63044" /></linearGradient><clipPath
       id="clipPath166"
       clipPathUnits="userSpaceOnUse"><path
         id="path164"
         d="m 3011.36,2322.93 -380.95,-921.25 645.99,230.67 z" /></clipPath><linearGradient
       id="linearGradient172"
       spreadMethod="pad"
       gradientTransform="matrix(645.996,0,0,-645.996,2630.41,1862.31)"
       gradientUnits="userSpaceOnUse"
       y2="0"
       x2="1"
       y1="0"
       x1="0"><stop
         id="stop168"
         offset="0"
         style="stop-opacity:1;stop-color:#b83446" /><stop
         id="stop170"
         offset="1"
         style="stop-opacity:1;stop-color:#b22740" /></linearGradient><clipPath
       id="clipPath182"
       clipPathUnits="userSpaceOnUse"><path
         id="path180"
         d="m 2638.04,87.6016 -7.63,1314.0784 645.99,230.67 z" /></clipPath><linearGradient
       id="linearGradient188"
       spreadMethod="pad"
       gradientTransform="matrix(496.303,-180.639,-180.639,-496.303,2494.53,1028.37)"
       gradientUnits="userSpaceOnUse"
       y2="0"
       x2="1"
       y1="0"
       x1="0"><stop
         id="stop184"
         offset="0"
         style="stop-opacity:1;stop-color:#911a39" /><stop
         id="stop186"
         offset="1"
         style="stop-opacity:1;stop-color:#9a1b3a" /></linearGradient><clipPath
       id="clipPath198"
       clipPathUnits="userSpaceOnUse"><path
         id="path196"
         d="M 2638.04,87.6016 2630.41,1401.68 1703.55,1019.9 Z" /></clipPath><linearGradient
       id="linearGradient208"
       spreadMethod="pad"
       gradientTransform="matrix(845.178,-1007.24,-1007.24,-845.178,2069.5,1326.96)"
       gradientUnits="userSpaceOnUse"
       y2="0"
       x2="1"
       y1="0"
       x1="0"><stop
         id="stop200"
         offset="0"
         style="stop-opacity:1;stop-color:#b0253f" /><stop
         id="stop202"
         offset="0.0368098"
         style="stop-opacity:1;stop-color:#b0253f" /><stop
         id="stop204"
         offset="0.93865"
         style="stop-opacity:1;stop-color:#bd3e53" /><stop
         id="stop206"
         offset="1"
         style="stop-opacity:1;stop-color:#bd3e53" /></linearGradient><clipPath
       id="clipPath218"
       clipPathUnits="userSpaceOnUse"><path
         id="path216"
         d="M 2638.04,87.6016 780.348,84.9414 1703.55,1019.9 Z" /></clipPath><linearGradient
       id="linearGradient228"
       spreadMethod="pad"
       gradientTransform="matrix(-4.09e-5,934.951,934.951,4.09e-5,1709.19,84.9398)"
       gradientUnits="userSpaceOnUse"
       y2="0"
       x2="1"
       y1="0"
       x1="0"><stop
         id="stop220"
         offset="0"
         style="stop-opacity:1;stop-color:#b0253f" /><stop
         id="stop222"
         offset="0.0368098"
         style="stop-opacity:1;stop-color:#b0253f" /><stop
         id="stop224"
         offset="0.93865"
         style="stop-opacity:1;stop-color:#951a39" /><stop
         id="stop226"
         offset="1"
         style="stop-opacity:1;stop-color:#951a39" /></linearGradient><clipPath
       id="clipPath254"
       clipPathUnits="userSpaceOnUse"><path
         id="path252"
         d="m 2794.8,3322.73 118.91,-5.81 0.99,55.21 -123.81,25.16 z m 172.79,247.61 c -105.52,74.64 -215.13,128.03 -339.94,162.99 l 2.76,-254.58 c 153.1,-0.17 310.95,-49.41 465.23,-135.76 z m -117.48,208.66 -43.69,31.22 v -75.4 l 105.14,-65.01 z" /></clipPath><linearGradient
       id="linearGradient264"
       spreadMethod="pad"
       gradientTransform="matrix(467.988,0,0,-467.988,2627.65,3563.57)"
       gradientUnits="userSpaceOnUse"
       y2="0"
       x2="1"
       y1="0"
       x1="0"><stop
         id="stop256"
         offset="0"
         style="stop-opacity:1;stop-color:#ffffff" /><stop
         id="stop258"
         offset="0.0368098"
         style="stop-opacity:1;stop-color:#ffffff" /><stop
         id="stop260"
         offset="0.742331"
         style="stop-opacity:1;stop-color:#f1dfcd" /><stop
         id="stop262"
         offset="1"
         style="stop-opacity:1;stop-color:#f1dfcd" /></linearGradient><clipPath
       id="clipPath274"
       clipPathUnits="userSpaceOnUse"><path
         id="path272"
         d="m 2391.34,3350.05 82.13,-34.3 -18.1,58.3 z m -76.31,496.95 -36.7,121.72 -13.28,1.17 -139.23,-82.87 15.19,-36.2 z m 312.62,-113.67 c -97.89,27.56 -205.08,43.92 -327.38,49.74 -168.07,8.13 -375.31,-32.97 -587.76,-150.21 l 582.45,-242.79 c 106.93,60.86 219.86,88.84 335.45,88.68 z" /></clipPath><linearGradient
       id="linearGradient284"
       spreadMethod="pad"
       gradientTransform="matrix(755.15,-435.986,-435.986,-755.15,1855.96,3881.31)"
       gradientUnits="userSpaceOnUse"
       y2="0"
       x2="1"
       y1="0"
       x1="0"><stop
         id="stop276"
         offset="0"
         style="stop-opacity:1;stop-color:#ffffff" /><stop
         id="stop278"
         offset="0.0368098"
         style="stop-opacity:1;stop-color:#ffffff" /><stop
         id="stop280"
         offset="0.895705"
         style="stop-opacity:1;stop-color:#f1dfcd" /><stop
         id="stop282"
         offset="1"
         style="stop-opacity:1;stop-color:#f1dfcd" /></linearGradient></defs><g
     transform="matrix(1.3333333,0,0,-1.3333333,0,569.4)"
     id="g10"><g
       transform="scale(0.1)"
       id="g12"><path
         id="path14"
         style="fill:#76122c;fill-opacity:1;fill-rule:nonzero;stroke:none"
         d="M 3357.61,482.512 C 3357.61,215.969 3141.56,0 2875.19,0 H 0 v 3788.05 c 0,266.45 216.016,482.5 482.465,482.5 H 3357.61 V 482.512" /><g
         id="g16"><g
           clip-path="url(#clipPath22)"
           id="g18"><path
             id="path34"
             style="fill:url(#linearGradient32);fill-opacity:1;fill-rule:nonzero;stroke:none"
             d="m 3280.21,527.84 c 0,-256.481 -192.54,-449.1212 -449.2,-449.1212 H 77.3945 V 3742.63 c 0,256.57 192.5075,449.12 449.2075,449.12 H 3280.21 V 527.84" /></g></g><path
         id="path36"
         style="fill:#811835;fill-opacity:1;fill-rule:nonzero;stroke:none"
         d="M 778.77,4188.02 789.105,3254.56 95.4102,3022.32 Z" /><g
         id="g38"><g
           clip-path="url(#clipPath44)"
           id="g40"><path
             id="path56"
             style="fill:url(#linearGradient54);fill-opacity:1;fill-rule:nonzero;stroke:none"
             d="m 778.77,4188.02 10.335,-933.46 915.475,381.62 z" /></g></g><path
         id="path58"
         style="fill:#ab1e3e;fill-opacity:1;fill-rule:nonzero;stroke:none"
         d="M 399.727,2333.81 789.105,3254.56 95.4102,3022.32 Z" /><g
         id="g60"><g
           clip-path="url(#clipPath66)"
           id="g62"><path
             id="path78"
             style="fill:url(#linearGradient76);fill-opacity:1;fill-rule:nonzero;stroke:none"
             d="M 399.727,2333.81 783.953,1397.7 87.7227,1622.05 Z" /></g></g><path
         id="path80"
         style="fill:#811835;fill-opacity:1;fill-rule:nonzero;stroke:none"
         d="M 780.059,85.1094 783.953,1397.7 87.7227,1622.05 Z" /><path
         id="path82"
         style="fill:#831935;fill-opacity:1;fill-rule:nonzero;stroke:none"
         d="M 780.059,85.1094 87.7227,84.9414 V 1622.05 Z" /><g
         id="g84"><g
           clip-path="url(#clipPath90)"
           id="g86"><path
             id="path102"
             style="fill:url(#linearGradient100);fill-opacity:1;fill-rule:nonzero;stroke:none"
             d="M 780.059,85.1094 783.953,1397.7 1702.92,1019.56 Z" /></g></g><g
         id="g104"><g
           clip-path="url(#clipPath110)"
           id="g106"><path
             id="path122"
             style="fill:url(#linearGradient120);fill-opacity:1;fill-rule:nonzero;stroke:none"
             d="m 2622.59,4182.87 10.3,-933.54 -928.31,386.85 z" /></g></g><g
         id="g124"><g
           clip-path="url(#clipPath130)"
           id="g126"><path
             id="path142"
             style="fill:url(#linearGradient140);fill-opacity:1;fill-rule:nonzero;stroke:none"
             d="m 2622.59,4182.87 10.3,-933.54 644.84,-229.59 z" /></g></g><g
         id="g144"><g
           clip-path="url(#clipPath150)"
           id="g146"><path
             id="path158"
             style="fill:url(#linearGradient156);fill-opacity:1;fill-rule:nonzero;stroke:none"
             d="m 3011.36,2322.93 -378.47,926.4 644.84,-229.59 z" /></g></g><g
         id="g160"><g
           clip-path="url(#clipPath166)"
           id="g162"><path
             id="path174"
             style="fill:url(#linearGradient172);fill-opacity:1;fill-rule:nonzero;stroke:none"
             d="m 3011.36,2322.93 -380.95,-921.25 645.99,230.67 z" /></g></g><g
         id="g176"><g
           clip-path="url(#clipPath182)"
           id="g178"><path
             id="path190"
             style="fill:url(#linearGradient188);fill-opacity:1;fill-rule:nonzero;stroke:none"
             d="m 2638.04,87.6016 -7.63,1314.0784 645.99,230.67 z" /></g></g><g
         id="g192"><g
           clip-path="url(#clipPath198)"
           id="g194"><path
             id="path210"
             style="fill:url(#linearGradient208);fill-opacity:1;fill-rule:nonzero;stroke:none"
             d="M 2638.04,87.6016 2630.41,1401.68 1703.55,1019.9 Z" /></g></g><g
         id="g212"><g
           clip-path="url(#clipPath218)"
           id="g214"><path
             id="path230"
             style="fill:url(#linearGradient228);fill-opacity:1;fill-rule:nonzero;stroke:none"
             d="M 2638.04,87.6016 780.348,84.9414 1703.55,1019.9 Z" /></g></g><path
         id="path232"
         style="fill:#f6d1d9;fill-opacity:1;fill-rule:nonzero;stroke:none"
         d="m 2187.5,1348.04 -65.77,159.59 -242.77,45.42 63.93,-183.66 z m -162.49,1700.19 106.37,-146.15 65.76,95.75 -92.83,144.14 z m 317.27,283.3 52.15,-124.71 96.72,52.14 -35.78,115.09 z m -42.01,451.54 C 1728.16,3810.88 704.039,3268.67 556.988,1093.47 H 1959.82 c -314.56,814.88 -278.07,1429.74 -61.78,1846.4 314.53,605.97 782.68,646.08 1219.77,390.67 15.45,36.7 36.7,83.19 36.7,83.19 -249.44,239.8 -482.93,351.32 -854.24,369.34 z m 494.53,-460.34 118.91,-5.81 0.99,55.21 -123.81,25.16 z m -913.85,-610.04 -39.69,-136.43 143.15,-131.6 35.78,126.79 z m -1107.329,-99.73 -222.398,96.74 -75.442,-220.45 228.258,-85.11 z m 2195.219,1081.17 -162.42,116.09 v -75.4 l 156.6,-96.81 z m -653.81,152.87 -36.7,121.72 -193.37,15.53 56.05,-133.43 z m -587.91,-104.46 -114.08,148.88 -160.5,-94.74 133.43,-145.14 z m -545.39,-442.98 -177.9,131.62 -123.803,-168.32 195.333,-121.89 z m -967.667,-1750.99 272.058,-30.98 59.328,252.84 -260.476,46.25 z m 1584.607,498.69 208.9,-95.73 -21.25,148.87 -190.56,102.46 2.91,-155.6" /><path
         id="path234"
         style="fill:#ffffff;fill-opacity:1;fill-rule:nonzero;stroke:none"
         d="m 911.371,3305.3 167.769,70.08 -75.31,55.8 z" /><path
         id="path236"
         style="fill:#ffffff;fill-opacity:1;fill-rule:nonzero;stroke:none"
         d="m 1585.97,3651.54 44.55,28.73 -157.1,93.66 z" /><path
         id="path238"
         style="fill:#cfb6bf;fill-opacity:1;fill-rule:nonzero;stroke:none"
         d="m 284.973,1816.68 -62.942,-237.89 149.254,-48.07 114.836,-13.13 59.328,252.84 -260.476,46.25" /><path
         id="path240"
         style="fill:#cfb6bf;fill-opacity:1;fill-rule:nonzero;stroke:none"
         d="m 636.367,1757.32 c -16.894,-95.08 -31.801,-194.3 -44.59,-297.68 l 192.176,-61.94 -147.586,359.62" /><path
         id="path242"
         style="fill:#b7babc;fill-opacity:1;fill-rule:nonzero;stroke:none"
         d="m 222.031,1578.79 -7.968,-30.22 157.222,-17.85 z" /><path
         id="path244"
         style="fill:#b7babc;fill-opacity:1;fill-rule:nonzero;stroke:none"
         d="m 783.953,1397.7 -192.176,61.94 c -14.32,-116.66 -26.152,-238.55 -34.789,-366.17 h 226.059 l 0.906,304.23" /><path
         id="path246"
         style="fill:#d6b3be;fill-opacity:1;fill-rule:nonzero;stroke:none"
         d="M 783.047,1093.47 H 1523.41 L 783.953,1397.7 Z" /><g
         id="g248"><g
           clip-path="url(#clipPath254)"
           id="g250"><path
             id="path266"
             style="fill:url(#linearGradient264);fill-opacity:1;fill-rule:nonzero;stroke:none"
             d="m 2794.8,3322.73 118.91,-5.81 0.99,55.21 -123.81,25.16 z m 172.79,247.61 c -105.52,74.64 -215.13,128.03 -339.94,162.99 l 2.76,-254.58 c 153.1,-0.17 310.95,-49.41 465.23,-135.76 z m -117.48,208.66 -43.69,31.22 v -75.4 l 105.14,-65.01 -61.45,109.19" /></g></g><g
         id="g268"><g
           clip-path="url(#clipPath274)"
           id="g270"><path
             id="path286"
             style="fill:url(#linearGradient284);fill-opacity:1;fill-rule:nonzero;stroke:none"
             d="m 2391.34,3350.05 82.13,-34.3 -18.1,58.3 z m -76.31,496.95 -36.7,121.72 -13.28,1.17 -139.23,-82.87 15.19,-36.2 z m 312.62,-113.67 c -97.89,27.56 -205.08,43.92 -327.38,49.74 -168.07,8.13 -375.31,-32.97 -587.76,-150.21 l 582.45,-242.79 c 106.93,60.86 219.86,88.84 335.45,88.68 l -2.76,254.58" /></g></g><path
         id="path288"
         style="fill:#ffffff;fill-opacity:1;fill-rule:nonzero;stroke:none"
         d="m 1634.34,241.789 h 166.32 v 620.84 h -166.32 z m 512.47,620.84 h -166.23 v -620.84 h 414.84 v 166.41 h -248.61 z m 676.06,-222.438 c -73.56,0 -161.51,0 -161.51,0 v 67.668 h 283.32 v 153.77 c 0,0 -184.74,0 -284.31,0 -99.63,0 -168.3,-79.207 -168.3,-158.59 v -65.758 c 0,-95.73 86.11,-162.492 166.4,-162.492 80.2,0 149.86,0 149.86,0 V 399.391 H 2502.79 V 242.789 c 0,0 211.72,0 301.64,0 89.94,0 171.23,67.672 171.23,149.789 v 82.211 c 0,99.723 -79.3,165.402 -152.79,165.402 z M 1288.1,531.238 h -148.31 v 166.321 h 148.31 z m -5.11,332.723 h -152.2 c -76.06,0 -155.981,-69.75 -155.981,-161.25 0,-91.512 0,-458.922 0,-458.922 h 164.981 v 121.07 h 148.31 v -121.07 h 167.68 c 0,0 0,369.992 0,460.172 0,90.25 -81.25,160 -172.79,160 z M 631.848,572.512 H 479.645 v 125.136 h 152.203 z m 164.976,30.886 v 103.473 c 0,55.211 -55.047,154.348 -155.679,154.348 -100.559,0 -327.817,0 -327.817,0 V 241.051 h 167.645 v 180.59 L 616.355,241.051 H 817.5 L 660.156,450.039 c 0,0 136.668,26.981 136.668,153.359" /></g></g></svg>